<?xml version="1.0" encoding="UTF-8" standalone="no"?>
<!-- Created with Inkscape (http://www.inkscape.org/) -->

<svg
   version="1.1"
   id="svg1"
   width="50"
   height="50"
   viewBox="0 0 50 50"
   sodipodi:docname="search.svg"
   inkscape:version="1.3 (0e150ed6c4, 2023-07-21)"
   xmlns:inkscape="http://www.inkscape.org/namespaces/inkscape"
   xmlns:sodipodi="http://sodipodi.sourceforge.net/DTD/sodipodi-0.dtd"
   xmlns="http://www.w3.org/2000/svg"
   xmlns:svg="http://www.w3.org/2000/svg">
  <defs
     id="defs1" />
  <sodipodi:namedview
     id="namedview1"
     pagecolor="#505050"
     bordercolor="#ffffff"
     borderopacity="1"
     inkscape:showpageshadow="0"
     inkscape:pageopacity="0"
     inkscape:pagecheckerboard="1"
     inkscape:deskcolor="#505050"
     showgrid="false"
     inkscape:zoom="21.181818"
     inkscape:cx="24.2897"
     inkscape:cy="24.006438"
     inkscape:window-width="1720"
     inkscape:window-height="1371"
     inkscape:window-x="20"
     inkscape:window-y="20"
     inkscape:window-maximized="0"
     inkscape:current-layer="g1" />
  <g
     inkscape:groupmode="layer"
     inkscape:label="Image"
     id="g1">
    <path
       style="fill:#000000;stroke-width:0.0596928"
       d="m 44.649893,48.770383 c -0.972544,-0.251297 -0.583179,0.09823 -7.736425,-6.945006 -3.603725,-3.548307 -6.572115,-6.451467 -6.596423,-6.451467 -0.02431,0 -0.456786,0.244975 -0.961065,0.54439 -1.517814,0.901204 -3.079516,1.601172 -4.58335,2.054295 C 19.300649,39.621367 13.166317,38.503167 8.428328,34.993266 2.9475458,30.933103 0.07526859,24.377694 0.91024619,17.834724 1.63709,12.139098 5.1176932,6.973381 10.218456,4.0199986 c 7.748728,-4.48657497 17.449882,-2.9260313 23.524519,3.7841928 3.72679,4.1167226 5.448179,9.7696416 4.556264,14.9624476 -0.42092,2.450644 -1.330141,4.819674 -2.715126,7.074433 -0.243729,0.396789 -0.443141,0.743309 -0.443141,0.770042 0,0.02674 2.956689,2.970019 6.57042,6.540636 5.070771,5.010277 6.607578,6.56206 6.733223,6.798845 0.211266,0.398154 0.400835,1.135749 0.39971,1.55524 -0.004,1.526753 -1.233785,2.968261 -2.813864,3.298557 -0.529857,0.110753 -0.850904,0.102854 -1.380568,-0.03401 z M 21.917577,31.730573 c 2.390244,-0.495032 4.445584,-1.593061 6.17991,-3.301508 1.726863,-1.701096 2.852293,-3.750456 3.348378,-6.097249 0.1944,-0.919636 0.267456,-2.615173 0.15234,-3.535598 C 30.932579,13.474168 26.769882,9.2262608 21.374332,8.3630607 20.51661,8.2258387 18.741785,8.2260493 17.923088,8.363475 c -1.80764,0.3034177 -3.362026,0.9006908 -4.807577,1.847312 -2.499612,1.636875 -4.3558657,4.16714 -5.0868017,6.93384 -0.2971289,1.124675 -0.3754802,1.736506 -0.3757874,2.934471 -3.501e-4,1.448763 0.1322519,2.28695 0.5721822,3.616215 1.3076864,3.951223 4.7690859,7.059984 8.8839669,7.978894 0.964228,0.215326 1.448084,0.256258 2.76489,0.233908 1.10786,-0.0188 1.399513,-0.04413 2.043616,-0.177538 z"
       id="path1" />
    <path
       style="fill:#ffffff;stroke-width:0.0472103"
       d="M 44.590129,48.730387 C 43.761492,48.516093 43.888561,48.628511 38.5,43.342422 31.855265,36.824047 30.687041,35.68124 30.494102,35.510702 l -0.192593,-0.170232 -0.822428,0.476777 c -3.623567,2.10065 -6.699305,2.952552 -10.311699,2.856081 C 15.019291,38.562552 11.116136,37.123771 7.8369099,34.496691 5.9913488,33.01816 4.3118253,31.042651 3.1440396,28.976786 1.3375351,25.781 0.53089358,22.014445 0.8764442,18.388412 1.4251372,12.630705 4.8190217,7.3285173 9.9457506,4.2196437 14.619982,1.3851668 20.267096,0.73437039 25.447409,2.4331697 c 5.111108,1.6761052 9.343988,5.4855707 11.486175,10.3372163 0.735541,1.665858 1.19797,3.325093 1.453908,5.216739 0.105852,0.782363 0.120946,3.042091 0.02554,3.824034 -0.334608,2.742481 -1.222278,5.261183 -2.786087,7.905327 l -0.515125,0.870993 0.195162,0.226678 c 0.107339,0.124674 2.454684,2.462663 5.216322,5.195532 6.32622,6.260317 7.799033,7.752286 7.932001,8.035162 0.05543,0.117929 0.155865,0.400394 0.223182,0.627701 0.295107,0.996485 0.05768,2.040936 -0.655586,2.883885 -0.886036,1.047138 -2.193781,1.494367 -3.432774,1.17395 z M 21.669528,31.800118 c 3.372401,-0.622203 6.253015,-2.549834 8.15838,-5.459374 0.945794,-1.444251 1.607636,-3.295654 1.777141,-4.971282 0.07462,-0.73764 0.06205,-2.245136 -0.02362,-2.83336 C 31.180425,15.78286 29.751946,13.147945 27.66524,11.312453 25.705723,9.5888388 23.257753,8.5085652 20.795265,8.2807755 20.046637,8.2115245 18.420819,8.2521875 17.845498,8.3545515 15.667646,8.7420461 13.749,9.5976148 12.109446,10.91239 c -0.522529,0.419021 -1.454609,1.350267 -1.859659,1.857996 -1.0459508,1.311097 -1.7982847,2.775038 -2.2286939,4.336741 -0.3134911,1.137474 -0.3644801,1.541032 -0.36768,2.91004 -0.00184,0.787147 0.019833,1.388355 0.060416,1.675966 0.1309571,0.928079 0.4884023,2.134804 0.9220927,3.112958 1.4102122,3.180626 4.4335552,5.780983 7.8168712,6.723239 1.250543,0.348278 1.773168,0.40743 3.399141,0.384727 1.044603,-0.01459 1.399756,-0.03685 1.817597,-0.113939 z"
       id="path2" />
  </g>
</svg>
